<svg xmlns="http://www.w3.org/2000/svg" version="1.1" width="250" height="250" viewBox="0 0 250 250"><rect x="0" y="0" width="250" height="250" fill="#ffffff"/><g transform="scale(11.905)"><g transform="translate(0,0)"><path fill-rule="evenodd" d="M8 0L8 1L9 1L9 2L8 2L8 5L11 5L11 4L12 4L12 3L13 3L13 0L12 0L12 3L11 3L11 2L10 2L10 0ZM9 2L9 4L11 4L11 3L10 3L10 2ZM8 6L8 7L9 7L9 8L8 8L8 9L9 9L9 10L11 10L11 6L10 6L10 7L9 7L9 6ZM12 6L12 7L13 7L13 6ZM0 8L0 9L1 9L1 10L0 10L0 11L1 11L1 10L3 10L3 11L2 11L2 12L0 12L0 13L2 13L2 12L3 12L3 13L4 13L4 12L3 12L3 11L5 11L5 13L8 13L8 14L9 14L9 15L11 15L11 17L12 17L12 16L14 16L14 17L13 17L13 19L12 19L12 18L11 18L11 20L9 20L9 19L10 19L10 18L9 18L9 17L10 17L10 16L9 16L9 17L8 17L8 21L13 21L13 19L14 19L14 20L15 20L15 21L16 21L16 20L17 20L17 21L18 21L18 19L19 19L19 21L20 21L20 20L21 20L21 19L19 19L19 18L20 18L20 17L21 17L21 16L20 16L20 17L19 17L19 18L17 18L17 17L18 17L18 15L19 15L19 13L20 13L20 15L21 15L21 12L20 12L20 11L19 11L19 12L18 12L18 15L17 15L17 14L16 14L16 13L17 13L17 12L16 12L16 13L15 13L15 14L14 14L14 11L18 11L18 10L19 10L19 8L16 8L16 9L15 9L15 10L13 10L13 9L14 9L14 8L13 8L13 9L12 9L12 12L11 12L11 11L10 11L10 12L9 12L9 11L7 11L7 10L6 10L6 11L5 11L5 10L4 10L4 8ZM6 8L6 9L7 9L7 8ZM9 8L9 9L10 9L10 8ZM20 8L20 9L21 9L21 8ZM16 9L16 10L18 10L18 9ZM6 11L6 12L7 12L7 11ZM8 12L8 13L9 13L9 12ZM10 12L10 14L11 14L11 15L13 15L13 12L12 12L12 13L11 13L11 12ZM15 14L15 17L14 17L14 19L15 19L15 20L16 20L16 17L17 17L17 15L16 15L16 14ZM0 0L0 7L7 7L7 0ZM1 1L1 6L6 6L6 1ZM2 2L2 5L5 5L5 2ZM14 0L14 7L21 7L21 0ZM15 1L15 6L20 6L20 1ZM16 2L16 5L19 5L19 2ZM0 14L0 21L7 21L7 14ZM1 15L1 20L6 20L6 15ZM2 16L2 19L5 19L5 16Z" fill="#000000"/></g></g></svg>