<svg xmlns="http://www.w3.org/2000/svg" version="1.1" width="250" height="250" viewBox="0 0 250 250"><rect x="0" y="0" width="250" height="250" fill="#ffffff"/><g transform="scale(11.905)"><g transform="translate(0,0)"><path fill-rule="evenodd" d="M8 0L8 1L9 1L9 4L10 4L10 5L11 5L11 6L10 6L10 7L9 7L9 6L8 6L8 8L9 8L9 9L7 9L7 8L6 8L6 9L7 9L7 10L6 10L6 11L7 11L7 12L6 12L6 13L7 13L7 12L8 12L8 14L9 14L9 15L11 15L11 17L9 17L9 16L8 16L8 18L10 18L10 19L8 19L8 21L10 21L10 19L11 19L11 18L13 18L13 16L14 16L14 17L16 17L16 18L18 18L18 20L17 20L17 19L16 19L16 20L17 20L17 21L20 21L20 20L21 20L21 18L19 18L19 16L18 16L18 15L17 15L17 14L18 14L18 13L19 13L19 14L20 14L20 17L21 17L21 13L19 13L19 11L21 11L21 8L20 8L20 9L18 9L18 10L17 10L17 9L16 9L16 11L17 11L17 14L16 14L16 13L15 13L15 12L14 12L14 13L15 13L15 14L13 14L13 13L10 13L10 12L12 12L12 11L10 11L10 10L11 10L11 8L12 8L12 10L13 10L13 11L15 11L15 8L14 8L14 10L13 10L13 4L12 4L12 3L11 3L11 2L12 2L12 1L13 1L13 0ZM10 1L10 2L11 2L11 1ZM11 4L11 5L12 5L12 4ZM11 6L11 7L12 7L12 6ZM0 8L0 11L1 11L1 12L0 12L0 13L2 13L2 11L1 11L1 9L2 9L2 10L5 10L5 8L3 8L3 9L2 9L2 8ZM9 9L9 10L7 10L7 11L9 11L9 12L10 12L10 11L9 11L9 10L10 10L10 9ZM3 12L3 13L5 13L5 12ZM9 13L9 14L10 14L10 13ZM11 14L11 15L12 15L12 14ZM14 15L14 16L15 16L15 15ZM16 16L16 17L17 17L17 16ZM14 18L14 19L13 19L13 20L15 20L15 18ZM19 19L19 20L20 20L20 19ZM11 20L11 21L12 21L12 20ZM0 0L0 7L7 7L7 0ZM1 1L1 6L6 6L6 1ZM2 2L2 5L5 5L5 2ZM14 0L14 7L21 7L21 0ZM15 1L15 6L20 6L20 1ZM16 2L16 5L19 5L19 2ZM0 14L0 21L7 21L7 14ZM1 15L1 20L6 20L6 15ZM2 16L2 19L5 19L5 16Z" fill="#000000"/></g></g></svg>